Coordinates
version=1
nRows=11
nColumns=40
inDegrees=yes

Units are S.I. units (second, meters, Newtons, ...)
If the header above contains a line with 'inDegrees', this indicates whether rotational values are in degrees (yes) or radians (no).

endheader
time	pelvis_tilt	pelvis_list	pelvis_rotation	pelvis_tx	pelvis_ty	pelvis_tz	hip_flexion_r	hip_adduction_r	hip_rotation_r	knee_angle_r	knee_angle_r_beta	ankle_angle_r	subtalar_angle_r	mtp_angle_r	hip_flexion_l	hip_adduction_l	hip_rotation_l	knee_angle_l	knee_angle_l_beta	ankle_angle_l	subtalar_angle_l	mtp_angle_l	lumbar_extension	lumbar_bending	lumbar_rotation	arm_flex_r	arm_add_r	arm_rot_r	elbow_flex_r	pro_sup_r	wrist_flex_r	wrist_dev_r	arm_flex_l	arm_add_l	arm_rot_l	elbow_flex_l	pro_sup_l	wrist_flex_l	wrist_dev_l
      4.55500000	    -39.06348690	      1.35426203	      1.50651734	      0.15291132	      0.44220863	     -1.15406593	    133.35561341	    -47.47403620	     21.90204956	    115.51790015	      2.01616770	     27.47992043	     10.61577160	      0.00000000	    129.78668271	    -43.56187360	     19.01874143	    108.14294058	      1.88745038	     25.18646050	     22.93504154	      0.00000000	      0.00000000	      0.00000000	      0.00000000	     44.99464508	    -15.00003062	     44.99464508	     75.00017637	     45.00000026	      0.00000000	      0.00000000	     44.99464508	    -15.00003062	     44.99464508	     75.00017637	     45.00000026	      0.00000000	      0.00000000
      4.56000000	    -39.05140683	      1.41512922	      1.52035263	      0.15289345	      0.44158706	     -1.15414605	    133.55561887	    -47.45033619	     22.11650853	    115.59145794	      2.01745153	     27.47553296	     10.68675491	      0.00000000	    129.80192903	    -43.56761923	     19.00053690	    108.23193083	      1.88900355	     25.24782341	     22.87750937	      0.00000000	      0.00000000	      0.00000000	      0.00000000	     44.99528070	    -15.00002542	     44.99528070	     75.00017625	     45.00000026	      0.00000000	      0.00000000	     44.99528070	    -15.00002542	     44.99528070	     75.00017625	     45.00000026	      0.00000000	      0.00000000
      4.56500000	    -39.03281371	      1.40939641	      1.49628784	      0.15284092	      0.44103057	     -1.15423973	    133.63807718	    -47.43620167	     22.18648008	    115.64928426	      2.01846079	     27.47759847	     10.73365195	      0.00000000	    129.91701797	    -43.56556461	     19.10674640	    108.32450234	      1.89061923	     25.25049993	     22.84241964	      0.00000000	      0.00000000	      0.00000000	      0.00000000	     44.99584715	    -15.00002105	     44.99584715	     75.00017615	     45.00000026	      0.00000000	      0.00000000	     44.99584715	    -15.00002105	     44.99584715	     75.00017615	     45.00000026	      0.00000000	      0.00000000
      4.57000000	    -39.01657459	      1.44523040	      1.51182419	      0.15278447	      0.44052496	     -1.15435599	    133.78870427	    -47.42054430	     22.34794777	    115.70083906	      2.01936059	     27.44806667	     10.73220214	      0.00000000	    129.93770540	    -43.54773813	     19.10978800	    108.40247701	      1.89198014	     25.28708010	     22.81128830	      0.00000000	      0.00000000	      0.00000000	      0.00000000	     44.99629650	    -15.00001787	     44.99629650	     75.00017609	     45.00000026	      0.00000000	      0.00000000	     44.99629650	    -15.00001787	     44.99629650	     75.00017609	     45.00000026	      0.00000000	      0.00000000
      4.57500000	    -38.98683084	      1.43456164	      1.42413626	      0.15275310	      0.44007507	     -1.15431097	    133.76832786	    -47.35077034	     22.31444492	    115.75183369	      2.02025061	     27.43506887	     10.72730048	      0.00000000	    130.07929380	    -43.61041452	     19.28743524	    108.47996997	      1.89333265	     25.29571079	     22.86882246	      0.00000000	      0.00000000	      0.00000000	      0.00000000	     44.99641479	    -15.00001700	     44.99641479	     75.00017607	     45.00000026	      0.00000000	      0.00000000	     44.99641479	    -15.00001700	     44.99641479	     75.00017607	     45.00000026	      0.00000000	      0.00000000
      4.58000000	    -38.73777302	      1.43802772	      1.35449993	      0.15285672	      0.44038771	     -1.15425651	    133.44476481	    -47.33134700	     22.23685413	    115.77573769	      2.02066782	     27.67085895	     10.78797436	      0.00000000	    129.83770853	    -43.69547688	     19.35622824	    108.51096790	      1.89387366	     25.63956004	     23.12367706	      0.00000000	      0.00000000	      0.00000000	      0.00000000	     44.99649848	    -15.00001639	     44.99649848	     75.00017606	     45.00000026	      0.00000000	      0.00000000	     44.99649848	    -15.00001639	     44.99649848	     75.00017606	     45.00000026	      0.00000000	      0.00000000
      4.58500000	    -38.75123503	      1.42170969	      1.32712479	      0.15272176	      0.43980672	     -1.15441037	    133.54969090	    -47.29607332	     22.30623468	    115.80405241	      2.02116200	     27.54319562	     10.83551540	      0.00000000	    130.02358976	    -43.66580138	     19.50991351	    108.61823320	      1.89574580	     25.53129758	     23.12605762	      0.00000000	      0.00000000	      0.00000000	      0.00000000	     44.99658693	    -15.00001577	     44.99658693	     75.00017604	     45.00000026	      0.00000000	      0.00000000	     44.99658693	    -15.00001577	     44.99658693	     75.00017604	     45.00000026	      0.00000000	      0.00000000
      4.59000000	    -38.98216781	      1.37593426	      1.44461340	      0.15233970	      0.43892291	     -1.15479498	    133.97760109	    -47.34768995	     22.48197347	    115.85194860	      2.02199795	     27.36561698	     10.64136410	      0.00000000	    130.32879401	    -43.43508665	     19.46870702	    108.65898799	      1.89645710	     25.27246883	     22.63827408	      0.00000000	      0.00000000	      0.00000000	      0.00000000	     44.99669314	    -15.00001502	     44.99669314	     75.00017603	     45.00000026	      0.00000000	      0.00000000	     44.99669314	    -15.00001502	     44.99669314	     75.00017603	     45.00000026	      0.00000000	      0.00000000
      4.59500000	    -38.96529785	      1.43339601	      1.34889555	      0.15222623	      0.43864658	     -1.15460103	    133.98882709	    -47.18048098	     22.49916171	    115.88348142	      2.02254830	     27.29150427	     10.59420640	      0.00000000	    130.39649525	    -43.56078059	     19.54745726	    108.70152702	      1.89719955	     25.24522059	     22.72113897	      0.00000000	      0.00000000	      0.00000000	      0.00000000	     44.99678463	    -15.00001439	     44.99678463	     75.00017602	     45.00000026	      0.00000000	      0.00000000	     44.99678463	    -15.00001439	     44.99678463	     75.00017602	     45.00000026	      0.00000000	      0.00000000
      4.60000000	    -38.96883530	      1.35078104	      1.48563738	      0.15197347	      0.43846260	     -1.15510780	    134.08602099	    -47.33043202	     22.60259472	    115.88953025	      2.02265387	     27.29508852	     10.54908984	      0.00000000	    130.40065645	    -43.30405778	     19.50490380	    108.73090338	      1.89771226	     25.24817781	     22.51231182	      0.00000000	      0.00000000	      0.00000000	      0.00000000	     44.99688828	    -15.00001369	     44.99688828	     75.00017601	     45.00000026	      0.00000000	      0.00000000	     44.99688828	    -15.00001369	     44.99688828	     75.00017601	     45.00000026	      0.00000000	      0.00000000
      4.60500000	    -38.91182603	      1.36939965	      1.39491725	      0.15183790	      0.43847106	     -1.15498518	    133.96849950	    -47.20522813	     22.53639998	    115.89867871	      2.02281354	     27.30855154	     10.55675538	      0.00000000	    130.42378265	    -43.40139201	     19.58672840	    108.75131936	      1.89806859	     25.27359900	     22.64644664	      0.00000000	      0.00000000	      0.00000000	      0.00000000	     44.99698190	    -15.00001307	     44.99698190	     75.00017599	     45.00000026	      0.00000000	      0.00000000	     44.99698190	    -15.00001307	     44.99698190	     75.00017599	     45.00000026	      0.00000000	      0.00000000
